<?xml version='1.0' encoding='UTF-8'?>
<svg x="0px" y="0px" viewBox="0 0 32 32" version="1.1" xmlns="http://www.w3.org/2000/svg" xmlns:xlink="http://www.w3.org/1999/xlink" enable-background="new 0 0 32 32" xml:space="preserve" id="Layer_1">
  <style type="text/css">
	.Yellow{fill:#FFB115;}
	.Red{fill:#D11C1C;}
	.Black{fill:#727272;}
	.Blue{fill:#1177D7;}
	.White{fill:#FFFFFF;}
	.Green{fill:#039C23;}
	.st0{opacity:0.75;}
	.st1{opacity:0.5;}
	.st2{opacity:0.25;}
	.st3{fill:#FFB115;}
</style>
  <g />
  <g id="BoundImage">
    <path d="M18,22H4V4h22v8c0.7,0,1.3,0,2,0.1V3c0-0.5-0.5-1-1-1H3C2.5,2,2,2.5,2,3v20c0,0.5,0.5,1,1,1h15V22z" fill="#727272" class="Black" />
    <path d="M19,6c1.7,0,3,1.3,3,3s-1.3,3-3,3s-3-1.3-3-3S17.3,6,19,6z M26,28c-3.3,0-6-0.9-6-2v2c0,1.1,2.7,2,6,2   s6-0.9,6-2v-2C32,27.1,29.3,28,26,28z M26,24c-3.3,0-6-0.9-6-2v2c0,1.1,2.7,2,6,2s6-0.9,6-2v-2C32,23.1,29.3,24,26,24z M26,14   c-3.3,0-6,0.9-6,2v4c0,1.1,2.7,2,6,2s6-0.9,6-2v-4C32,14.9,29.3,14,26,14z" fill="#FFB115" class="Yellow" />
    <polygon points="18,18 10,10 6,14 6,20 18,20  " fill="#039C23" class="Green" />
  </g>
</svg>