<?xml version='1.0' encoding='UTF-8'?>
<svg x="0px" y="0px" viewBox="0 0 32 32" version="1.1" xmlns="http://www.w3.org/2000/svg" xmlns:xlink="http://www.w3.org/1999/xlink" enable-background="new 0 0 32 32" xml:space="preserve" id="Layer_1">
  <style type="text/css">
	.Black{fill:#727272;}
	.Yellow{fill:#FFB115;}
	.Blue{fill:#1177D7;}
	.Green{fill:#039C23;}
	.Red{fill:#D11C1C;}
	.White{fill:#FFFFFF;}
	.st0{opacity:0.75;}
	.st1{opacity:0.5;}
	.st2{opacity:0.25;}
</style>
  <g id="AddHeader">
    <rect x="4" y="6" width="14" height="6" rx="0" ry="0" fill="#FFB115" class="Yellow" />
    <g opacity="0.75" class="st0">
      <path d="M18,16H4v-2h14V16z M18,18H4v2h14V18z M18,22H4v2h14V22z" fill="#727272" opacity="0.75" class="Black" />
    </g>
    <path d="M20,12v14H2V4h16h2h2V3c0-0.5-0.5-1-1-1H1C0.5,2,0,2.5,0,3v24c0,0.5,0.5,1,1,1h20c0.5,0,1-0.5,1-1V16v-4H20z   " fill="#727272" class="Black" />
    <polygon points="32,6 28,6 28,2 24,2 24,6 20,6 20,10 24,10 24,14 28,14 28,10 32,10  " fill="#039C23" class="Green" />
  </g>
</svg>